<svg width="20" height="20" viewBox="0 0 20 20" fill="none" xmlns="http://www.w3.org/2000/svg">
<g clip-path="url(#clip0_378_13751)">
<path d="M19.5 16.334C19.5 16.77 19.146 17.124 18.708 17.124H9.20801V17.916C9.20801 18.792 8.5 19.5 7.626 19.5H5.25C4.376 19.5 3.66602 18.792 3.66602 17.916V17.124H1.29199C0.854004 17.124 0.5 16.77 0.5 16.334C0.5 15.896 0.854004 15.542 1.29199 15.542H3.66602V14.75C3.66602 13.876 4.376 13.166 5.25 13.166H7.626C8.5 13.166 9.20801 13.876 9.20801 14.75V15.542H18.708C19.146 15.542 19.5 15.896 19.5 16.334Z" fill="#5A6E7C"/>
<path d="M19.5 9.99999C19.5 10.438 19.146 10.792 18.708 10.792H16.334V11.584C16.334 12.458 15.624 13.166 14.75 13.166H12.374C11.5 13.166 10.792 12.458 10.792 11.584V10.792H1.29199C0.854004 10.792 0.5 10.438 0.5 9.99999C0.5 9.56199 0.854004 9.20798 1.29199 9.20798H10.792V8.41598C10.792 7.54198 11.5 6.83398 12.374 6.83398H14.75C15.624 6.83398 16.334 7.54198 16.334 8.41598V9.20798H18.708C19.146 9.20798 19.5 9.56199 19.5 9.99999Z" fill="#5A6E7C"/>
<path d="M0.5 3.66599C0.5 3.22999 0.854004 2.874 1.29199 2.874H3.66602V2.084C3.66602 1.208 4.376 0.5 5.25 0.5H7.626C8.5 0.5 9.20801 1.208 9.20801 2.084V2.874H18.708C19.146 2.874 19.5 3.22999 19.5 3.66599C19.5 4.10399 19.146 4.458 18.708 4.458H9.20801V5.25C9.20801 6.124 8.5 6.834 7.626 6.834H5.25C4.376 6.834 3.66602 6.124 3.66602 5.25V4.458H1.29199C0.854004 4.458 0.5 4.10399 0.5 3.66599Z" fill="#5A6E7C"/>
</g>
<defs>
<clipPath id="clip0_378_13751">
<rect width="20" height="20" fill="white"/>
</clipPath>
</defs>
</svg>
