<svg width="20" height="20" viewBox="0 0 20 20" fill="none" xmlns="http://www.w3.org/2000/svg">
<path d="M0.5 4.63524V15.3651C0.501387 15.7662 0.613983 16.159 0.825267 16.4999C1.21885 17.1408 1.91638 17.532 2.66845 17.5336H15.8848C16.8792 17.5336 17.7462 16.8573 17.9882 15.8928L19.4338 10.9454C19.7263 9.78408 19.0219 8.60555 17.8605 8.31311C17.8191 8.30266 17.7773 8.29344 17.7352 8.28546V7.52651C17.7352 6.32891 16.7644 5.35806 15.5668 5.35806H10.6989C10.3608 5.36876 10.0605 5.14353 9.97611 4.81595L9.80263 4.09313C9.55782 3.14471 8.7076 2.47816 7.72815 2.4668H2.66845C1.47085 2.4668 0.5 3.43764 0.5 4.63524ZM1.94563 4.63524C1.94563 4.23604 2.26925 3.91243 2.66845 3.91243H7.72815C8.06626 3.90173 8.36657 4.12696 8.45097 4.45454L8.62444 5.17736C8.86926 6.12578 9.71948 6.79233 10.6989 6.80369H15.5668C15.966 6.80369 16.2896 7.12731 16.2896 7.52651V8.24932H5.15493C4.23026 8.24268 3.40311 8.82314 3.09491 9.69495L1.94563 13.1789L1.94563 4.63524Z" fill="#5A6E7C"/>
</svg>
