<svg width="20" height="20" viewBox="0 0 20 20" fill="none" xmlns="http://www.w3.org/2000/svg">
<path d="M19.5 6.04056C19.5 6.45457 19.26 6.82857 18.89 7.00057L10.452 10.9626C10.31 11.0286 10.152 11.0626 9.998 11.0626C9.84399 11.0626 9.68999 11.0286 9.548 10.9626L1.11401 7.00057C0.73999 6.82857 0.5 6.45457 0.5 6.04056C0.5 5.62857 0.73999 5.25858 1.11401 5.08255L9.548 1.12056C9.83398 0.984552 10.166 0.984552 10.452 1.12056L18.89 5.08255C19.264 5.25858 19.5 5.63255 19.5 6.04056Z" fill="#5A6E7C"/>
<path d="M1.11332 10.9621L9.54833 14.9232C9.68991 14.9892 9.84407 15.0238 9.99824 15.0238C10.1524 15.0238 10.3097 14.9892 10.4513 14.9232L18.8894 10.9621C19.4212 10.7135 19.6477 10.0811 19.396 9.54943C19.1506 9.02086 18.515 8.79119 17.9896 9.03974L9.99824 12.79L2.01314 9.04289C1.48143 8.79119 0.849039 9.02086 0.603634 9.55258C0.351937 10.0811 0.581611 10.7135 1.11332 10.9621Z" fill="#5A6E7C"/>
<path d="M17.9865 13.0007L9.99824 16.751L2.01314 13.0007C1.48143 12.7522 0.849039 12.9787 0.603634 13.5104C0.351937 14.0421 0.581611 14.6745 1.11332 14.923L9.54833 18.881C9.68991 18.9502 9.84407 18.9817 9.99824 18.9817C10.1524 18.9817 10.3097 18.9471 10.4513 18.881L18.8894 14.923C19.4212 14.6745 19.6477 14.0421 19.396 13.5104C19.1474 12.9818 18.5119 12.7553 17.9865 13.0007Z" fill="#5A6E7C"/>
</svg>
