<svg width="20" height="20" viewBox="0 0 20 20" fill="none" xmlns="http://www.w3.org/2000/svg">
<g clip-path="url(#clip0_378_13755)">
<path d="M14.5386 0.513184H5.46103C2.71672 0.513184 0.5 2.70342 0.5 5.42143V11.1741C0.5 13.3381 1.92488 15.1852 3.90401 15.8184C4.59007 16.0296 5.03862 16.663 5.03862 17.3753V18.9587C5.03862 19.381 5.54005 19.6447 5.88315 19.381L9.81507 16.399C10.1054 16.1879 10.4748 16.0559 10.8442 16.0559H14.5385C17.283 16.0826 19.5 13.8923 19.5 11.1745V5.42184C19.5 2.70383 17.2832 0.513593 14.539 0.513593L14.5386 0.513184ZM4.98603 10.013C4.19433 10.013 3.53462 9.35331 3.53462 8.56161C3.53462 7.76991 4.19433 7.1102 4.98603 7.1102C5.77773 7.1102 6.43744 7.76991 6.43744 8.56161C6.43726 9.35331 5.77754 10.013 4.98603 10.013ZM9.99984 10.013C9.20814 10.013 8.54842 9.35331 8.54842 8.56161C8.54842 7.76991 9.20814 7.1102 9.99984 7.1102C10.7915 7.1102 11.4512 7.76991 11.4512 8.56161C11.4512 9.35331 10.7915 10.013 9.99984 10.013ZM15.0136 10.013C14.2219 10.013 13.5622 9.35331 13.5622 8.56161C13.5622 7.76991 14.2219 7.1102 15.0136 7.1102C15.8053 7.1102 16.465 7.76991 16.465 8.56161C16.465 9.35331 15.8053 10.013 15.0136 10.013Z" fill="#5A6E7C"/>
</g>
<defs>
<clipPath id="clip0_378_13755">
<rect width="20" height="20" fill="white"/>
</clipPath>
</defs>
</svg>
